<svg width="29" height="32" viewBox="0 0 29 32" fill="none" xmlns="http://www.w3.org/2000/svg">
<path d="M22.4844 0.757848C17.1865 -0.252616 11.8137 -0.252616 6.51468 0.757848C4.19699 1.2754 1.28116 4.07677 0.711107 6.33007C-0.237036 10.69 -0.237036 15.1097 0.711107 19.4696C1.28116 21.7229 4.19699 24.5243 6.51468 25.0418C6.51526 25.042 6.51585 25.0421 6.51643 25.0422C6.61967 25.0625 6.69494 25.1522 6.69494 25.2577V31.6446C6.69494 31.9638 7.08356 32.1211 7.3048 31.8899L10.3307 28.7763C10.3307 28.7763 12.7419 26.2947 13.1754 25.8485C13.2178 25.8048 13.2763 25.7812 13.337 25.7829C16.392 25.8677 19.4503 25.6203 22.4844 25.042C24.8021 24.5244 27.7191 21.723 28.288 19.4697C29.2373 15.1098 29.2373 10.6901 28.288 6.33019C27.719 4.07677 24.8033 1.2754 22.4844 0.757848ZM22.5652 19.7948C22.1017 20.7816 21.4272 21.6025 20.4542 22.1265C20.1798 22.2744 19.8517 22.3222 19.5418 22.4178C19.1855 22.3094 18.8459 22.2365 18.5306 22.1053C15.2629 20.746 12.2555 18.9924 9.87333 16.3043C8.51865 14.7757 7.45825 13.05 6.56208 11.2236C6.13706 10.3575 5.77887 9.45746 5.41378 8.5633C5.08076 7.74789 5.57122 6.90549 6.08754 6.29111C6.57203 5.71452 7.19547 5.27325 7.87064 4.94805C8.39762 4.6942 8.91746 4.84055 9.30233 5.28839C10.1344 6.2566 10.8986 7.27434 11.5175 8.39665C11.898 9.08696 11.7936 9.93077 11.1039 10.4006C10.9363 10.5148 10.7835 10.6488 10.6274 10.7778C10.4904 10.8908 10.3616 11.005 10.2677 11.158C10.0961 11.4379 10.0879 11.7683 10.1984 12.0727C11.0489 14.4161 12.4825 16.2384 14.835 17.2198C15.2116 17.3769 15.5896 17.5597 16.0233 17.509C16.7496 17.4239 16.9847 16.6252 17.4937 16.2079C17.9912 15.8 18.6269 15.7946 19.1628 16.1346C19.6988 16.4747 20.2184 16.8398 20.7348 17.2088C21.2418 17.571 21.7465 17.9253 22.2142 18.3382C22.6635 18.7351 22.8184 19.2559 22.5652 19.7948ZM18.3461 12.1584C18.1432 12.162 18.223 12.158 18.3001 12.1558C17.9732 12.1443 17.7954 11.9513 17.7602 11.6376C17.7346 11.4084 17.7143 11.1762 17.6598 10.9532C17.5523 10.514 17.3195 10.107 16.9512 9.83794C16.7772 9.71084 16.5801 9.61813 16.3736 9.55851C16.1113 9.48258 15.8389 9.50347 15.5772 9.43915C15.293 9.36944 15.1358 9.1386 15.1804 8.87125C15.221 8.62797 15.4571 8.43808 15.7222 8.45733C17.3793 8.57727 18.5637 9.43622 18.7327 11.3922C18.7447 11.5303 18.7587 11.676 18.7282 11.8081C18.6785 12.0227 18.5255 12.1344 18.3709 12.1547C18.3836 12.155 18.3811 12.156 18.3461 12.1584ZM17.3157 7.68475C16.8072 7.43513 16.2573 7.27998 15.6998 7.1875C15.4562 7.14713 15.2101 7.1226 14.9653 7.08845C14.6687 7.04714 14.5104 6.8576 14.5244 6.56455C14.5375 6.28993 14.7377 6.09242 15.0361 6.10932C16.0171 6.16518 16.9645 6.37772 17.8366 6.8407C19.6099 7.78228 20.6229 9.26851 20.9186 11.2531C20.9321 11.343 20.9535 11.432 20.9603 11.5223C20.9771 11.745 20.9875 11.9681 21.0046 12.2619C20.9976 12.3154 20.9939 12.4412 20.9627 12.5597C20.8493 12.99 20.1987 13.0438 20.0489 12.6096C20.0045 12.4808 19.9979 12.3342 19.9976 12.1955C19.9961 11.2878 19.7993 10.3811 19.3428 9.59137C18.8735 8.77995 18.1565 8.09762 17.3157 7.68475ZM22.7952 13.8181C22.4526 13.8222 22.2984 13.5348 22.2762 13.2267C22.2322 12.6169 22.2018 12.0044 22.1178 11.3996C21.6754 8.20735 19.1364 5.5663 15.9673 4.99957C15.4904 4.91425 15.0022 4.89183 14.5192 4.84102C14.2138 4.80886 13.8139 4.79032 13.7462 4.40972C13.6894 4.09062 13.9581 3.83654 14.2611 3.82022C14.3435 3.81576 14.4264 3.81952 14.5092 3.81987C18.6137 3.93524 14.7597 3.82879 14.5202 3.82046C18.7894 3.94521 22.2946 6.78766 23.0463 11.0206C23.1745 11.7425 23.2201 12.4805 23.2771 13.2132C23.301 13.5213 23.127 13.8141 22.7952 13.8181Z" fill="white"/>
</svg>
