<svg width="120" height="120" viewBox="0 0 120 120" fill="none" xmlns="http://www.w3.org/2000/svg">
<path d="M70 45C70 43.8954 70.8954 43 72 43H80.385C81.6685 43 82.874 43.6159 83.6262 44.6559L94 59H70V45Z" stroke="#252525" stroke-width="4" stroke-linecap="round" stroke-linejoin="round"/>
<path d="M70 59V57C68.8954 57 68 57.8954 68 59H70ZM94 59H96C96 57.8954 95.1046 57 94 57V59ZM70 75H68C68 76.1046 68.8954 77 70 77V75ZM74.8847 75V77C75.7808 77 76.5675 76.4039 76.81 75.5412L74.8847 75ZM75.1716 74.1716L73.3238 73.4062L73.3238 73.4062L75.1716 74.1716ZM79.1716 70.1716L78.4062 68.3238H78.4062L79.1716 70.1716ZM84.8284 70.1716L85.5938 68.3238H85.5938L84.8284 70.1716ZM88.8284 74.1716L90.6762 73.4062V73.4062L88.8284 74.1716ZM89.1153 75L87.19 75.5412C87.4325 76.4039 88.2192 77 89.1153 77V75ZM94 75V77C95.1046 77 96 76.1046 96 75H94ZM70 61H94V57H70V61ZM72 75V59H68V75H72ZM74.8847 73H70V77H74.8847V73ZM76.81 75.5412C76.8675 75.3369 76.9372 75.1351 77.0193 74.9369L73.3238 73.4062C73.1809 73.7512 73.0594 74.1027 72.9593 74.4588L76.81 75.5412ZM77.0193 74.9369C77.5665 73.616 78.616 72.5665 79.9369 72.0193L78.4062 68.3238C76.1051 69.2769 74.2769 71.1051 73.3238 73.4062L77.0193 74.9369ZM79.9369 72.0193C81.2579 71.4722 82.7421 71.4722 84.0631 72.0193L85.5938 68.3238C83.2927 67.3707 80.7073 67.3707 78.4062 68.3238L79.9369 72.0193ZM84.0631 72.0193C85.384 72.5665 86.4335 73.616 86.9807 74.9369L90.6762 73.4062C89.7231 71.1051 87.8949 69.2769 85.5938 68.3238L84.0631 72.0193ZM86.9807 74.9369C87.0628 75.1351 87.1325 75.3369 87.19 75.5412L91.0407 74.4588C90.9406 74.1027 90.8191 73.7512 90.6762 73.4062L86.9807 74.9369ZM94 73H89.1153V77H94V73ZM92 59V75H96V59H92Z" fill="#252525"/>
<path d="M79.1716 70.1716C80.9826 69.4214 83.0174 69.4214 84.8284 70.1716V70.1716C86.6394 70.9217 88.0783 72.3606 88.8284 74.1716V74.1716C89.5786 75.9826 89.5786 78.0174 88.8284 79.8284V79.8284C88.0783 81.6394 86.6394 83.0783 84.8284 83.8284V83.8284C83.0174 84.5786 80.9826 84.5786 79.1716 83.8284V83.8284C77.3606 83.0783 75.9217 81.6394 75.1716 79.8284V79.8284C74.4214 78.0174 74.4214 75.9826 75.1716 74.1716V74.1716C75.9217 72.3606 77.3606 70.9217 79.1716 70.1716V70.1716Z" stroke="#252525" stroke-width="4" stroke-linecap="round" stroke-linejoin="round"/>
<path d="M26 75H24C24 76.1046 24.8954 77 26 77V75ZM31.8847 75V77C32.7808 77 33.5675 76.4039 33.81 75.5412L31.8847 75ZM32.1716 74.1716L34.0193 74.9369L34.0193 74.9369L32.1716 74.1716ZM36.1716 70.1716L35.4062 68.3238L36.1716 70.1716ZM41.8284 70.1716L42.5938 68.3238L41.8284 70.1716ZM45.8284 74.1716L43.9807 74.9369L45.8284 74.1716ZM46.1153 75L44.19 75.5412C44.4325 76.4039 45.2192 77 46.1153 77V75ZM70 75V77C71.1046 77 72 76.1046 72 75H70ZM28 39C28 37.8954 28.8954 37 30 37V33C26.6863 33 24 35.6863 24 39H28ZM28 75V39H24V75H28ZM31.8847 73H26V77H31.8847V73ZM33.81 75.5412C33.8675 75.3369 33.9372 75.1351 34.0193 74.9369L30.3238 73.4062C30.1809 73.7512 30.0594 74.1027 29.9593 74.4588L33.81 75.5412ZM34.0193 74.9369C34.5665 73.616 35.616 72.5665 36.9369 72.0193L35.4062 68.3238C33.1051 69.2769 31.2769 71.1051 30.3238 73.4062L34.0193 74.9369ZM36.9369 72.0193C38.2579 71.4722 39.7421 71.4722 41.0631 72.0193L42.5938 68.3238C40.2927 67.3707 37.7073 67.3707 35.4062 68.3238L36.9369 72.0193ZM41.0631 72.0193C42.384 72.5665 43.4335 73.616 43.9807 74.9369L47.6762 73.4062C46.7231 71.1051 44.8949 69.2769 42.5938 68.3238L41.0631 72.0193ZM43.9807 74.9369C44.0628 75.1351 44.1325 75.3369 44.19 75.5412L48.0407 74.4588C47.9406 74.1027 47.8191 73.7512 47.6762 73.4062L43.9807 74.9369ZM70 73H46.1153V77H70V73ZM68 39V75H72V39H68ZM66 37C67.1046 37 68 37.8954 68 39H72C72 35.6863 69.3137 33 66 33V37ZM30 37H66V33H30V37Z" fill="#252525"/>
<path d="M36.1716 70.1716C37.9826 69.4214 40.0174 69.4214 41.8284 70.1716V70.1716C43.6394 70.9217 45.0783 72.3606 45.8284 74.1716V74.1716C46.5786 75.9826 46.5786 78.0174 45.8284 79.8284V79.8284C45.0783 81.6394 43.6394 83.0783 41.8284 83.8284V83.8284C40.0174 84.5786 37.9826 84.5786 36.1716 83.8284V83.8284C34.3606 83.0783 32.9217 81.6394 32.1716 79.8284V79.8284C31.4214 78.0174 31.4214 75.9826 32.1716 74.1716V74.1716C32.9217 72.3606 34.3606 70.9217 36.1716 70.1716V70.1716Z" stroke="#252525" stroke-width="4" stroke-linecap="round" stroke-linejoin="round"/>
</svg>
