<svg width="120" height="120" viewBox="0 0 120 120" fill="none" xmlns="http://www.w3.org/2000/svg">
<path fill-rule="evenodd" clip-rule="evenodd" d="M34.625 45.5V81.75C34.625 82.7114 35.0069 83.6334 35.6867 84.3133C36.3666 84.9931 37.2886 85.375 38.25 85.375H81.75C82.7114 85.375 83.6334 84.9931 84.3133 84.3133C84.9931 83.6334 85.375 82.7114 85.375 81.75V45.5H34.625ZM38.25 34.625C36.3272 34.625 34.4831 35.3888 33.1235 36.7485C31.7638 38.1081 31 39.9522 31 41.875V81.75C31 83.6728 31.7638 85.5169 33.1235 86.8765C34.4831 88.2362 36.3272 89 38.25 89H81.75C83.6728 89 85.5169 88.2362 86.8765 86.8765C88.2362 85.5169 89 83.6728 89 81.75V41.875C89 39.9522 88.2362 38.1081 86.8765 36.7485C85.5169 35.3888 83.6728 34.625 81.75 34.625H38.25Z" fill="#252525"/>
<path fill-rule="evenodd" clip-rule="evenodd" d="M43.6875 31C44.1682 31 44.6292 31.191 44.9691 31.5309C45.309 31.8708 45.5 32.3318 45.5 32.8125V34.625C45.5 35.1057 45.309 35.5667 44.9691 35.9066C44.6292 36.2465 44.1682 36.4375 43.6875 36.4375C43.2068 36.4375 42.7458 36.2465 42.4059 35.9066C42.066 35.5667 41.875 35.1057 41.875 34.625V32.8125C41.875 32.3318 42.066 31.8708 42.4059 31.5309C42.7458 31.191 43.2068 31 43.6875 31V31ZM76.3125 31C76.7932 31 77.2542 31.191 77.5941 31.5309C77.934 31.8708 78.125 32.3318 78.125 32.8125V34.625C78.125 35.1057 77.934 35.5667 77.5941 35.9066C77.2542 36.2465 76.7932 36.4375 76.3125 36.4375C75.8318 36.4375 75.3708 36.2465 75.0309 35.9066C74.691 35.5667 74.5 35.1057 74.5 34.625V32.8125C74.5 32.3318 74.691 31.8708 75.0309 31.5309C75.3708 31.191 75.8318 31 76.3125 31V31Z" fill="#252525"/>
<path d="M66.738 55.4272L58.1995 74.5718H55.4524L63.9626 56.1069H52.8044V53.9546H66.738V55.4272Z" fill="#252525"/>
</svg>
