<svg width="120" height="120" viewBox="0 0 120 120" fill="none" xmlns="http://www.w3.org/2000/svg">
<path d="M74.1127 37.4336L45.6855 82.5691" stroke="#252525" stroke-width="4" stroke-linecap="round" stroke-linejoin="round"/>
<path d="M45.0253 50.5524C42.2499 48.1042 42.2499 44.135 45.0253 41.6869V41.6869C47.8006 39.2388 52.3004 39.2388 55.0758 41.6869V41.6869C57.8511 44.135 57.8511 48.1042 55.0758 50.5524V50.5524C52.3004 53.0005 47.8006 53.0005 45.0253 50.5524V50.5524Z" stroke="#252525" stroke-width="4" stroke-linecap="round" stroke-linejoin="round"/>
<path d="M64.9242 78.3136C62.1488 75.8655 62.1488 71.8963 64.9242 69.4481V69.4481C67.6996 67 72.1993 67 74.9747 69.4481V69.4481C77.7501 71.8963 77.7501 75.8655 74.9747 78.3136V78.3136C72.1993 80.7617 67.6996 80.7617 64.9242 78.3136V78.3136Z" stroke="#252525" stroke-width="4" stroke-linecap="round" stroke-linejoin="round"/>
</svg>
